<?xml version="1.0" encoding="UTF-8"?><svg xmlns="http://www.w3.org/2000/svg" viewBox="0 0 365.2 354.64"><defs><style>.l{fill:#ededee;}.l,.m,.n{font-family:Lato-Black, Lato;font-size:7px;}.o{stroke:#6256a0;}.o,.p,.q,.r,.s,.t,.u,.n{fill:none;}.o,.p,.r,.s,.t{stroke-width:3.5px;}.o,.p,.r,.s,.t,.u{stroke-linecap:round;}.o,.p,.r,.s,.t,.u,.n{stroke-linejoin:round;}.p{stroke:#eeb330;}.q{stroke:#010101;stroke-miterlimit:10;}.r{stroke:#1d93d1;}.s{stroke:#ea2f2f;}.t{stroke:#5abd78;}.u{stroke:#ee2524;}.v{opacity:.4;}.m{fill:#010101;}.n{stroke:#000;stroke-width:2px;}</style></defs><g id="a"/><g id="b"><g id="c"><line class="o" x1="58.45" y1="273.14" x2="93.37" y2="240.41"/><line class="o" x1="320.9" y1="44.7" x2="319.27" y2="38.66"/><polyline class="o" points="115.25 245.63 115.17 245.74 110.21 248.16"/><line class="o" x1="113.18" y1="238.29" x2="115.25" y2="245.63"/><line class="o" x1="105.65" y1="245.79" x2="113.18" y2="238.29"/><line class="o" x1="282.14" y1="6.39" x2="296.23" y2="4.24"/><line class="o" x1="110.21" y1="248.16" x2="105.65" y2="245.79"/><path class="o" d="M65.16,286.67l-5.06-11.19c-.09-.19-.2-.38-.32-.55l-1.33-1.79"/><path class="o" d="M268.9,33.86l11.6,4.47c.11,.05,.22,.08,.34,.11l4.46,1.12c.24,.06,.49,.1,.74,.1,.03,0,.06-.01,.1-.01l4.87-.16"/><path class="o" d="M250.55,68.09l4.22-6.41c.09-.15,.18-.29,.25-.44l12.41-23.81c.09-.17,.18-.36,.25-.55l1.22-3.02"/><path class="o" d="M312.62,1.75l.9,8.42,.53,7.22c.02,.28,.06,.56,.13,.83l2.87,11.67"/><path class="o" d="M256.07,75.7c-.1-.36-.17-.6-.17-.6-.11-.38-.3-.74-.55-1.05l-4.8-5.96"/><path class="o" d="M93.37,240.41l7.08,5.9c1.8,1.09,3.6,2.18,5.4,3.27,.42,.85,1.01,2.07,1.73,3.54"/><polyline class="o" points="95.73 238.08 102.8 243.97 111.88 234.93 113.74 234.29 115.76 235.3 118.91 246.43 117.23 248.4 110.5 251.69"/><path class="o" d="M236.83,176.11l-1,.29c-.72,.2-1.34,.67-1.73,1.3l-1.69,2.74-.35,.8-1.97,7.35-41.29,11.82"/><path class="r" d="M242.79,175.32l-1.91-11.39c-.02-.12-.04-.23-.08-.34l-2.84-9.88"/><polyline class="r" points="209.94 105.11 210.75 105.82 215.49 110.02"/><path class="r" d="M224.95,100.5c.1-.12,.15-.27,.15-.42l20.42-24.39,2.31-1.42"/><polyline class="r" points="247.83 74.27 250.3 77.35 251.11 80.15"/><path class="r" d="M296.48,43.21l14.69,.39,2.56-.83c.09-.03,.17-.05,.26-.07l2.21-.5,.13,.59,.53,2.34c-.01-1.05,.78-1.94,1.82-2.05,1.05-.11,2.01,.59,2.22,1.62"/><polyline class="r" points="226.12 148.6 218.92 126.25 219.1 125.06"/><polyline class="r" points="231.86 154.18 234.99 165.08 236.83 176.11"/><path class="r" d="M146.84,236.4c.45,1.04,.9,2.07,1.34,3.11,1.33-.67,2.67-1.33,4-2,.67,.33,1.33,.67,2,1,.92,1.59,1.83,3.18,2.75,4.78"/><path class="r" d="M158.29,242.65c-1.01-1.76-2.02-3.52-3.03-5.28-1.03-.51-2.05-1.03-3.08-1.54-1.08,.54-2.17,1.08-3.25,1.63"/><path class="r" d="M302.3,4.23c.04-.27,.04-.54,.01-.81v-.1l10.31-1.57"/><line class="r" x1="177.02" y1="210.41" x2="181.18" y2="224.45"/><path class="r" d="M256.07,75.7c5.04-.25,10.07-.5,15.11-.76"/><line class="r" x1="181.18" y1="224.45" x2="188.77" y2="222.01"/><polyline class="r" points="175.6 210.87 180.18 226.34 189.17 223.46"/><line class="r" x1="213.37" y1="128.58" x2="216.12" y2="149.37"/><path class="r" d="M115.62,262.18c-1.71-3.5-3.41-6.99-5.12-10.49"/><path class="r" d="M107.58,253.12c1.4,2.88,3.26,6.69,5.11,10.49"/><polyline class="p" points="277.23 74.64 304.22 73.29 319.23 72.5"/><line class="s" x1="140.63" y1="233.31" x2="134.88" y2="235.86"/><line class="s" x1="137.76" y1="222.31" x2="140.63" y2="233.31"/><path class="s" d="M148.93,237.46c-.5-1.16-1-2.32-1.51-3.49-.35-.81-.7-1.62-1.05-2.42-1.03-3.94-2.81-10.78-2.81-10.78"/><path class="s" d="M136.73,241.6l8.66-3.84c.64-.29,1.14-.77,1.45-1.36"/><polyline class="s" points="147.48 186.1 154.1 180.34 159.3 176.85 164.74 173.87 172.23 170.46"/><path class="s" d="M169.81,164.97l-7.66,3.49c-.06,.03-.13,.06-.19,.1l-5.65,3.09c-.08,.04-.16,.09-.23,.14l-5.48,3.67c-.1,.07-.2,.15-.3,.23l-6.59,5.74"/><line class="s" x1="295.37" y1="49.18" x2="307.54" y2="49.5"/><polyline class="s" points="205.88 127.69 207.17 126.73 210.05 126.83 213.37 128.58"/><polyline class="s" points="323.49 91.61 323.65 92.6 324.33 96.68 324.82 99.63 326.55 109.98"/><line class="s" x1="318.41" y1="66.54" x2="308.24" y2="67.07"/><line class="t" x1="189.17" y1="223.46" x2="195.73" y2="246.9"/><path class="t" d="M270.03,27.87l2.46-3.47s.05-.09,.08-.13l4.37-6.9c.05-.09,.11-.18,.15-.28l4.67-9.43c.09-.2,.17-.41,.22-.62l.16-.65"/><line class="t" x1="128.03" y1="176.51" x2="130.2" y2="174.72"/><path class="t" d="M257.08,95.65l.03-15.92c0-.28-.04-.56-.12-.83,0,0-.61-2.13-.92-3.2"/><line class="t" x1="274.4" y1="92.23" x2="257.08" y2="95.65"/><line class="t" x1="184.82" y1="207.89" x2="177.02" y2="210.41"/><line class="t" x1="160.67" y1="215.7" x2="175.6" y2="210.87"/><polyline class="t" points="117.66 215.64 120.3 223.84 126.49 242.28 130.51 255.49"/><line class="t" x1="95.73" y1="238.08" x2="117.66" y2="215.64"/><line class="t" x1="301.84" y1="67.4" x2="281.33" y2="68.43"/><line class="t" x1="251.11" y1="80.15" x2="251.08" y2="96.54"/><polyline class="t" points="219.73 119.06 219.98 115.11 220.5 113.31 221.64 111.62 226.15 107.24"/><polyline class="t" points="252.49 153.02 253.63 162.21 255.05 175.62"/><line class="t" x1="257.66" y1="119.21" x2="257.15" y2="101.75"/><polyline class="t" points="282.89 148.04 282.86 148.04 258.02 147.13"/><line class="t" x1="279.28" y1="123.8" x2="282.89" y2="148.04"/><path class="t" d="M165.8,144.2l30.51-27.45,13.11-11.17s.03-.02,.04-.03l.48-.44,.81,.71"/><polyline class="t" points="177.75 168.1 203.57 157.82 210.83 155.79 231.86 154.18"/><path class="t" d="M188.8,200.41l-4.08-12.04-4.08-12.58c-.02-.05-.03-.09-.05-.13l-2.84-7.56"/><line class="t" x1="201.12" y1="243.89" x2="190.56" y2="206.14"/><line class="t" x1="225.34" y1="230.34" x2="201.12" y2="243.89"/><polyline class="t" points="288.05 179.83 290.92 199.19 291.35 202.36 293.13 218.53"/><polyline class="t" points="161.23 148.42 167.27 160 169.81 164.97"/><line class="t" x1="200.49" y1="133.47" x2="206.44" y2="150.79"/><line class="t" x1="152.13" y1="191.86" x2="175.97" y2="180.85"/><polyline class="t" points="314 48.99 315.45 48.52 315.64 48.48 315.83 48.89"/><path class="t" d="M252.01,147.01h-4.93c-.08-.01-.16,0-.24,0l-20.72,1.59"/><line class="t" x1="132.08" y1="261.34" x2="136.67" y2="280.04"/><line class="t" x1="130.88" y1="223.94" x2="137.76" y2="222.31"/><line class="t" x1="54.11" y1="268.98" x2="41.53" y2="260.8"/><line class="t" x1="9.12" y1="339.87" x2="17.98" y2="326.27"/><path class="t" d="M6.14,333.1c-.07-.14-.15-.27-.23-.4l-2.51-3.92-1.65-4.87"/><line class="t" x1="123.51" y1="180.45" x2="133.22" y2="192.14"/><path class="t" d="M143.19,190.36l1.74,2.25s.05,.06,.08,.09l4.67,5.57,.22,.45"/><line class="t" x1="157.59" y1="202.25" x2="180.04" y2="193.26"/><path class="t" d="M224.95,100.5l.55,.48,3.27-1.44c.18-.08,.37-.14,.56-.18l7.12-1.59c.02-.07,.22-.08,.41-.07l14.22-1.16"/><polyline class="t" points="226.15 107.24 230.92 105.15 237.55 103.67 251.17 102.55"/><path class="t" d="M259.96,215.23l-6.18-.37c-.29-.01-.59,0-.88,.08l-3.41,.82c-.31,.07-.61,.19-.88,.36l-17.88,11.01"/><line class="t" x1="275.4" y1="98.15" x2="278.39" y2="117.85"/><polyline class="t" points="258.02 147.13 257.69 139.76 257.74 125.22"/><line class="t" x1="284.36" y1="117.27" x2="281.32" y2="97.17"/><polyline class="t" points="326.55 109.98 315.04 113.24 310.78 114.4 302.26 115.21 284.36 117.27"/><line class="t" x1="283.83" y1="154" x2="287.16" y2="173.88"/><polyline class="t" points="261.08 175.52 259.59 161.52 258.56 153.15"/><path class="t" d="M134.91,170.99l12.01-9.19c.13-.1,.26-.21,.38-.32l13.93-13.06"/><line class="t" x1="148.22" y1="187.05" x2="147.48" y2="186.1"/><path class="t" d="M206.44,150.79l-4.64,1.3c-.1,.03-.2,.06-.3,.1l-26.16,10.41"/><line class="t" x1="173.62" y1="159.24" x2="200.49" y2="133.47"/><line class="t" x1="178.15" y1="187.55" x2="155.55" y2="196.6"/><line class="t" x1="322.03" y1="85.75" x2="280.33" y2="91.25"/><line class="t" x1="308.24" y1="67.07" x2="314" y2="48.99"/><polyline class="t" points="67.35 292.27 94.23 279.29 124.39 264.57 132.08 261.34"/><path class="t" d="M54.43,277.8l.34,.45,6.12,13.54,7.43,22.92s.01,.03,.02,.04"/><line class="t" x1="118.18" y1="185.33" x2="123.51" y2="180.45"/><line class="t" x1="123.51" y1="201.41" x2="118.18" y2="185.33"/><line class="t" x1="162.16" y1="247.45" x2="166.52" y2="263.62"/><line class="t" x1="129" y1="218.22" x2="127.36" y2="213.1"/><polyline class="t" points="153.56 211.61 139.16 215.81 129 218.22"/><line class="t" x1="149.9" y1="198.72" x2="126.19" y2="207.15"/><path class="t" d="M126.19,207.15l13.2-12.6c.06-.05,.11-.1,.15-.16l3.65-4.03"/><line class="t" x1="180.04" y1="193.26" x2="183.05" y2="202.16"/><path class="t" d="M155.55,196.6l-.66-1.32c-.11-.22-.24-.42-.39-.6l-2.37-2.82"/><polyline class="t" points="212.39 149.66 205.17 128.61 205.88 127.69"/><line class="t" x1="297.15" y1="39.14" x2="296.48" y2="43.21"/><polyline class="t" points="319.27 38.66 318.97 38.47 307.42 39.18 307.36 38.2 297.15 39.14"/><line class="t" x1="280.33" y1="91.25" x2="277.23" y2="74.64"/><polyline class="t" points="251.74 125.34 251.69 139.82 251.69 139.96 252.01 147.01"/><line class="t" x1="219.1" y1="125.06" x2="251.74" y2="125.34"/><polyline class="t" points="115.58 209.18 90.16 235.2 54.11 268.98"/><line class="t" x1="109.98" y1="192.36" x2="115.58" y2="209.18"/><polyline class="t" points="26.62 343.28 16.13 351.18 13.06 352.89"/><path class="t" d="M1.75,323.91l.33-.78,8.3-12.9,14.23-22.79,5.94-8.9c.04-.06,.08-.11,.11-.17l7.65-12.51"/><path class="t" d="M68.34,314.75s.02,.04,.02,.07l.43,1.16-23.12,14.25-.18,.12-13.91,9.43"/><line class="t" x1="141.37" y1="257.23" x2="162.16" y2="247.45"/><polyline class="t" points="166.52 263.62 156.92 269.95 146.2 276.92"/><line class="t" x1="127.36" y1="213.1" x2="151.92" y2="204.37"/><line class="t" x1="159.31" y1="209.84" x2="157.59" y2="202.25"/><line class="t" x1="296.23" y1="4.24" x2="291.96" y2="33.45"/><line class="t" x1="137.42" y1="187.8" x2="128.03" y2="176.51"/><line class="t" x1="139.39" y1="185.62" x2="137.42" y2="187.8"/><line class="t" x1="188.77" y1="222.01" x2="184.82" y2="207.89"/><polyline class="t" points="171.86 260.4 167.04 242.5 160.67 215.7"/><line class="t" x1="139.71" y1="251.38" x2="136.73" y2="241.6"/><path class="t" d="M156.93,243.29c-6.01,2.83-17.22,8.09-17.22,8.09"/><path class="t" d="M130.51,255.49l-8.53,3.59s-.1,.04-.15,.07c0,0-2.57,1.25-6.21,3.03"/><line class="t" x1="31.58" y1="339.78" x2="21.81" y2="320.56"/><line class="t" x1="133.22" y1="192.14" x2="123.51" y2="201.41"/><line class="t" x1="146.2" y1="276.92" x2="141.37" y2="257.23"/><line class="t" x1="151.92" y1="204.37" x2="153.56" y2="211.61"/><line class="t" x1="183.05" y1="202.16" x2="159.31" y2="209.84"/><polyline class="t" points="291.96 33.45 286.36 33.64 282.48 32.67 270.03 27.87"/><polyline class="t" points="317.05 29.89 314.73 31.3 312.38 31.71 298.08 33.03"/><line class="t" x1="130.2" y1="174.72" x2="139.39" y2="185.62"/><polyline class="t" points="195.73 246.9 182.8 254.17 171.86 260.4"/><line class="t" x1="143.56" y1="220.77" x2="154.92" y2="217.46"/><line class="t" x1="307.54" y1="49.5" x2="301.84" y2="67.4"/><path class="t" d="M281.33,68.43l8.42-8.32c.11-.11,.22-.23,.31-.36l3.28-4.46c.2-.28,.35-.59,.45-.91l1.58-5.2"/><line class="t" x1="251.66" y1="119.34" x2="219.73" y2="119.06"/><polyline class="t" points="237.74 183.22 238.59 181.84 240.62 181.27 255.74 181.63"/><path class="t" d="M230.73,227.13l-2.47-10.05,.06-2.12,7.1-23.07s.02-.07,.03-.1l2.29-8.57"/><line class="t" x1="257.15" y1="101.75" x2="275.4" y2="98.15"/><line class="t" x1="281.32" y1="97.17" x2="323.49" y2="91.61"/><line class="t" x1="327.68" y1="115.9" x2="330.06" y2="127.15"/><line class="t" x1="170.74" y1="153.68" x2="165.8" y2="144.2"/><path class="t" d="M170.74,153.68l28.83-27.63,1.81-2.35c.17-.22,.37-.41,.59-.57l2.45-1.83c.55-.41,1.22-.62,1.89-.6l4.62,.15,1.31,.35,1.28,.68,.03-.17,.46-7.31c0-.1,.02-.21,.04-.33,.02-.11,.05-.22,.07-.32l.74-2.57c.09-.3,.22-.58,.4-.84l.22-.32"/><path class="t" d="M228.06,195.42l-5.59,18.17c-.08,.26-.13,.53-.14,.8l-.07,2.94c0,.27,.02,.53,.08,.79l3,12.22"/><path class="t" d="M258.56,153.15l24.21,.89s.07,0,.11,0c.05,0,.1,0,.15,0l.8-.04"/><line class="t" x1="261.77" y1="181.49" x2="288.05" y2="179.83"/><line class="t" x1="266.07" y1="215.7" x2="261.77" y2="181.49"/><line class="t" x1="173.99" y1="175.16" x2="148.22" y2="187.05"/><line class="t" x1="255.05" y1="175.62" x2="242.79" y2="175.32"/><polyline class="t" points="237.96 153.71 247.18 153 252.49 153.02"/><line class="t" x1="255.74" y1="181.63" x2="259.96" y2="215.23"/><polyline class="t" points="278.39 117.85 268.25 118.67 257.66 119.21"/><polyline class="t" points="257.74 125.22 268.65 124.66 279.28 123.8"/><path class="t" d="M330.06,127.15l-20.37,19.63-2.63-3.96-1.43-1.15-1.47-.56c-.49-.18-1.02-.24-1.53-.16l-1.53,.25c-.28,.04-.55,.12-.8,.24l-11.52,5.38"/><path class="t" d="M285.26,123.21l17.63-2.04,8.71-.83c.17,0,.34-.04,.5-.09l4.54-1.22,11.04-3.13"/><line class="t" x1="288.78" y1="146.82" x2="285.26" y2="123.21"/><line class="t" x1="190.56" y1="206.14" x2="228.06" y2="195.42"/><line class="t" x1="287.16" y1="173.88" x2="261.08" y2="175.52"/><line class="t" x1="293.13" y1="218.53" x2="266.07" y2="215.7"/><line class="t" x1="143.71" y1="181.43" x2="134.91" y2="170.99"/><line class="t" x1="172.23" y1="170.46" x2="173.99" y2="175.16"/><line class="t" x1="175.97" y1="180.85" x2="178.15" y2="187.55"/><path class="t" d="M291.01,39.49l-1,6.09-.36,1.77-1.45,4.8-2.84,3.86-12.1,11.96c-.18,.19-.34,.39-.47,.61l-1,1.67c-.19,.34-.32,.71-.38,1.09l-.33,2.19c-.05,.33-.04,.66,.02,.99l.08,.42"/><line class="t" x1="216.12" y1="149.37" x2="212.39" y2="149.66"/><line class="t" x1="319.23" y1="72.5" x2="322.03" y2="85.75"/><polyline class="t" points="315.83 48.89 317.59 55.64 318.41 66.54"/><line class="t" x1="73.93" y1="312.54" x2="67.35" y2="292.27"/><path class="t" d="M136.67,280.04l-28.08,12.65-10.05,4.76c-.14,.07-.27,.14-.4,.21l-18.36,10.82c-.11,.06-.21,.13-.31,.2l-5.54,3.86"/><line class="t" x1="134.88" y1="235.86" x2="130.88" y2="223.94"/><path class="t" d="M41.53,260.8l12.82-19.4,6.31-7,12.09-9.82c.05-.04,.1-.08,.14-.12l28.9-25.3,8.19-6.8"/><line class="t" x1="17.98" y1="326.27" x2="26.62" y2="343.28"/><path class="t" d="M13.06,352.89l-3.84-12.75c-.03-.09-.07-.18-.1-.27"/><path class="t" d="M50.12,273.55l-2.52,3.37-10.12,12.13c-.04,.05-.07,.1-.11,.15l-21.49,29.3-.1,.14-9.54,14.67c-.03-.07-.07-.14-.1-.21"/><line class="t" x1="38.31" y1="265.86" x2="50.12" y2="273.55"/><path class="t" d="M21.81,320.56l20.34-27.74,10.1-12.12s.07-.08,.1-.12l2.08-2.78"/><line class="t" x1="175.34" y1="162.6" x2="173.62" y2="159.24"/><line class="t" x1="298.08" y1="33.03" x2="302.3" y2="4.23"/><path class="t" d="M271.18,74.94c.5,2.69,3.22,17.29,3.22,17.29"/><line id="d" class="t" x1="154.92" y1="217.46" x2="160.64" y2="241.54"/><path id="e" class="t" d="M112.69,263.61c-8.9,4.34-21.08,10.28-21.08,10.28l-26.45,12.78"/><line id="f" class="t" x1="251.17" y1="102.55" x2="251.66" y2="119.34"/><line id="g" class="t" x1="160.64" y1="241.54" x2="158.29" y2="242.65"/></g><g id="h"><g id="i" class="v"><polygon class="q" points="159.31 209.84 157.59 202.25 180.04 193.26 183.05 202.16 159.31 209.84"/><path class="q" d="M126.19,207.15l13.2-12.6c.06-.05,.11-.1,.15-.16l3.65-4.03,1.74,2.25s.05,.06,.08,.09l4.67,5.57,.22,.45-23.71,8.43Z"/><polygon class="q" points="139.16 215.81 129 218.22 127.36 213.1 151.92 204.37 153.56 211.61 139.16 215.81"/><polygon class="q" points="156.92 269.95 146.2 276.92 141.37 257.23 162.16 247.45 166.52 263.62 156.92 269.95"/><polygon class="q" points="118.18 185.33 123.51 180.45 133.22 192.14 123.51 201.41 118.18 185.33"/><polygon class="q" points="105.65 245.79 113.18 238.29 115.25 245.63 115.17 245.74 110.21 248.16 105.65 245.79"/><path class="q" d="M45.67,330.23l-.18,.12-13.91,9.43-9.77-19.22,20.34-27.74,10.1-12.12s.07-.08,.1-.12l2.08-2.78,.34,.45,6.12,13.54,7.43,22.92s.03,.07,.04,.11l.43,1.16-23.12,14.25Z"/><path class="q" d="M15.88,318.5l-.1,.14-9.54,14.67c-.1-.21-.21-.42-.33-.61l-2.51-3.92-1.65-4.87,.33-.78,8.3-12.9,14.23-22.79,5.94-8.9c.04-.06,.08-.11,.11-.17l7.65-12.51,11.81,7.69-2.52,3.37-10.12,12.13c-.04,.05-.07,.1-.11,.15l-21.49,29.3Z"/><path class="q" d="M16.13,351.18l-3.07,1.71-3.84-12.75c-.03-.09-.07-.18-.1-.27l8.86-13.6,8.64,17.01-10.49,7.9Z"/><path class="q" d="M90.16,235.2l-36.05,33.78-12.58-8.18,12.82-19.4,6.31-7,12.09-9.82c.05-.04,.1-.08,.14-.12l28.9-25.3,8.19-6.8,5.6,16.82-25.42,26.02Z"/><polygon class="q" points="130.88 223.94 137.76 222.31 140.63 233.31 134.88 235.86 130.88 223.94"/><path class="q" d="M132.08,261.34l4.59,18.7-28.08,12.65-10.05,4.76c-.14,.07-.27,.14-.4,.21l-18.36,10.82c-.11,.06-.21,.13-.31,.2l-5.54,3.86-6.58-20.27,26.88-12.98,30.16-14.72,7.69-3.23Z"/><path class="q" d="M252.01,147.01h-4.93c-.08-.01-.16,0-.24,0l-20.72,1.59-7.2-22.35,.18-1.19,32.64,.28-.05,14.48v.14l.32,7.05Z"/><polygon class="q" points="308.24 67.07 314 48.99 315.45 48.52 315.64 48.48 315.83 48.89 317.59 55.64 318.41 66.54 308.24 67.07"/><polygon class="q" points="319.23 72.5 322.03 85.75 280.33 91.25 277.23 74.64 304.22 73.29 319.23 72.5"/><path class="q" d="M316.86,45.13c-.01-1.05,.78-1.94,1.82-2.05,1.05-.11,2.01,.59,2.22,1.62l-1.63-6.04-.3-.19-11.55,.71-.06-.98-10.21,.94-.67,4.07,14.69,.39,2.56-.83c.09-.03,.17-.05,.26-.07l2.21-.5,.13,.59,.53,2.34Z"/><polygon class="q" points="212.39 149.66 205.17 128.61 205.88 127.69 207.17 126.73 210.05 126.83 213.37 128.58 216.12 149.37 212.39 149.66"/><path class="q" d="M256.07,75.7l-.17-.6c-.11-.38-.3-.74-.55-1.05l-4.8-5.96,4.22-6.41c.09-.15,.18-.29,.25-.44l12.41-23.81c.09-.17,.18-.36,.25-.55l1.22-3.02,11.6,4.47c.11,.05,.22,.08,.34,.11l4.46,1.12c.24,.06,.49,.1,.74,.1,.03,0,.06-.01,.1-.01l4.87-.16-1,6.09-.36,1.77-1.45,4.8-2.84,3.86-12.1,11.96c-.18,.19-.34,.39-.47,.61l-1,1.67c-.19,.34-.32,.71-.38,1.09l-.33,2.19c-.05,.33-.04,.66,.02,.99l.08,.42c-5.04,.25-10.07,.5-15.11,.76Z"/><path class="q" d="M155.55,196.6l-.66-1.32c-.11-.22-.24-.42-.39-.6l-2.37-2.82,23.84-11.01,2.18,6.7-22.6,9.05Z"/><path class="q" d="M175.34,162.6l-1.72-3.36,26.87-25.77,5.95,17.32-4.64,1.3c-.1,.03-.2,.06-.3,.1l-26.16,10.41Z"/><polygon class="q" points="173.99 175.16 148.22 187.05 147.48 186.1 154.1 180.34 159.3 176.85 164.74 173.87 172.23 170.46 173.99 175.16"/><path class="q" d="M162.15,168.46c-.06,.03-.13,.06-.19,.1l-5.65,3.09c-.08,.04-.16,.09-.23,.14l-5.48,3.67c-.1,.07-.2,.15-.3,.23l-6.59,5.74-8.8-10.44,12.01-9.19c.13-.1,.26-.21,.38-.32l13.93-13.06,6.04,11.58,2.54,4.97-7.66,3.49Z"/><polygon class="q" points="290.92 199.19 291.35 202.36 293.13 218.53 266.07 215.7 261.77 181.49 288.05 179.83 290.92 199.19"/><path class="q" d="M261.08,175.52l-1.49-14-1.03-8.37,24.21,.89s.07,0,.11,0c.05,0,.1,0,.15,0l.8-.04,3.33,19.88-26.08,1.64Z"/><path class="q" d="M222.47,213.59c-.08,.26-.13,.53-.14,.8l-.07,2.94c0,.27,.02,.53,.08,.79l3,12.22-24.22,13.55-10.56-37.75,37.5-10.72-5.59,18.17Z"/><path class="q" d="M188.8,200.41l-4.08-12.04-4.08-12.58c-.02-.05-.03-.09-.05-.13l-2.84-7.56,25.82-10.28,7.26-2.03,21.03-1.61,3.13,10.9,1.84,11.03-1,.29c-.72,.2-1.34,.67-1.73,1.3l-1.69,2.74-.35,.8-1.97,7.35-41.29,11.82Z"/><path class="q" d="M215.27,110.34c-.18,.26-.31,.54-.4,.84l-.74,2.57c-.06,.21-.1,.43-.12,.65l-.46,7.31-.03,.17-1.28-.68-1.31-.35-4.62-.15c-.67-.02-1.34,.19-1.89,.6l-2.45,1.83c-.22,.16-.42,.35-.59,.57l-1.81,2.35-28.83,27.63-4.94-9.48,30.51-27.45,13.11-11.17s.03-.02,.04-.03l.48-.44,.81,.71,4.74,4.2-.22,.32Z"/><path class="q" d="M309.69,146.78l-2.63-3.96-1.43-1.15-1.47-.56c-.49-.18-1.02-.24-1.53-.16l-1.53,.25c-.28,.04-.55,.12-.8,.24l-11.52,5.38-3.52-23.61,17.63-2.04,8.71-.83c.17,0,.34-.04,.5-.09l4.54-1.22,11.04-3.13,2.38,11.25-20.37,19.63Z"/><polygon class="q" points="315.04 113.24 310.78 114.4 302.26 115.21 284.36 117.27 281.32 97.17 323.49 91.61 323.65 92.6 324.33 96.68 324.82 99.63 326.55 109.98 315.04 113.24"/><polygon class="q" points="282.89 148.04 282.86 148.04 258.02 147.13 257.69 139.76 257.74 125.22 268.65 124.66 279.28 123.8 282.89 148.04"/><polygon class="q" points="268.25 118.67 257.66 119.21 257.15 101.75 275.4 98.15 278.39 117.85 268.25 118.67"/><path class="q" d="M259.96,215.23l-6.18-.37c-.29-.01-.59,0-.88,.08l-3.41,.82c-.31,.07-.61,.19-.88,.36l-17.88,11.01-2.47-10.05,.06-2.12,7.1-23.07s.02-.07,.03-.1l2.29-8.57,.85-1.38,2.03-.57,15.12,.36,4.22,33.6Z"/><path class="q" d="M242.79,175.32l-1.91-11.39c-.02-.12-.04-.23-.08-.34l-2.84-9.88,9.22-.71,5.31,.02,1.14,9.19,1.42,13.41-12.26-.3Z"/><polygon class="q" points="219.73 119.06 219.98 115.11 220.5 113.31 221.64 111.62 226.15 107.24 230.92 105.15 237.55 103.67 251.17 102.55 251.66 119.34 219.73 119.06"/><path class="q" d="M251.08,96.54l-14.22,1.16c-.14,.02-.28,.04-.41,.07l-7.12,1.59c-.19,.04-.38,.1-.56,.18l-3.27,1.44-.55-.48c.1-.12,.15-.27,.15-.42l20.42-24.39,2.31-1.42,2.47,3.08,.81,2.8-.03,16.39Z"/><path class="q" d="M301.84,67.4l-20.51,1.03,8.42-8.32c.11-.11,.22-.23,.31-.36l3.28-4.46c.2-.28,.35-.59,.45-.91l1.58-5.2,12.17,.32-5.7,17.9Z"/><path class="q" d="M115.62,262.18l-5.12-10.49c1.39-.68,6.73-3.29,6.73-3.29l1.67-1.97-3.14-11.13-2.03-1.01-1.85,.64-9.08,9.04-7.07-5.89,21.93-22.44,2.64,8.2,6.19,18.44,4.02,13.21-8.53,3.59s-.1,.04-.15,.07c0,0-2.57,1.25-6.21,3.03Z"/><path class="q" d="M112.69,263.61c-8.9,4.34-21.08,10.28-21.08,10.28l-26.45,12.78-5.06-11.19c-.09-.19-.2-.38-.32-.55l-1.33-1.79,34.92-32.73,7.08,5.9c1.8,1.09,3.6,2.18,5.4,3.27,1.23,2.52,4.05,8.3,6.84,14.03Z"/><path class="q" d="M146.37,231.55c-1.03-3.94-2.81-10.78-2.81-10.78l11.36-3.31,5.72,24.08s-.91,.43-2.35,1.11l-3.03-5.28c-1.03-.51-2.05-1.03-3.08-1.54-1.08,.54-2.17,1.08-3.25,1.63-.5-1.16-1-2.32-1.51-3.49-.35-.81-.7-1.62-1.05-2.42Z"/><path class="q" d="M156.93,243.29c-6.01,2.83-17.22,8.09-17.22,8.09l-2.98-9.78,8.66-3.84c.64-.29,1.14-.77,1.45-1.36,.45,1.04,.9,2.07,1.34,3.11,1.33-.67,2.67-1.33,4-2,.67,.33,1.33,.67,2,1,.92,1.59,1.83,3.18,2.75,4.78Z"/><polygon class="q" points="175.6 210.87 180.18 226.34 189.17 223.46 195.73 246.9 182.8 254.17 171.86 260.4 167.04 242.5 160.67 215.7 175.6 210.87"/><polygon class="q" points="177.02 210.41 181.18 224.45 188.77 222.01 184.82 207.89 177.02 210.41"/><path class="q" d="M256.07,75.7c5.04-.25,10.07-.5,15.11-.76,.5,2.69,3.22,17.29,3.22,17.29l-17.32,3.42,.03-15.92c0-.28-.04-.56-.12-.83,0,0-.61-2.13-.92-3.2Z"/><polygon class="q" points="137.42 187.8 128.03 176.51 130.2 174.72 139.39 185.62 137.42 187.8"/><path class="q" d="M317.05,29.89l-2.32,1.41-2.35,.41-14.3,1.32,4.22-28.8c.04-.27,.04-.54,.01-.81v-.1l10.31-1.57,.9,8.42,.53,7.22c.02,.28,.06,.56,.13,.83l2.87,11.67Z"/><path class="q" d="M296.23,4.24l-4.27,29.21-5.6,.19-3.88-.97-12.45-4.8,2.46-3.47s.05-.09,.08-.13l4.37-6.9c.05-.09,.11-.18,.15-.28l4.67-9.43c.09-.2,.17-.41,.22-.62l.16-.65,14.09-2.15Z"/></g><g id="j"><line class="u" x1="211.25" y1="137.02" x2="211.25" y2="76.37"/><line class="u" x1="308.36" y1="41.07" x2="340.99" y2="41.07"/><line class="u" x1="314.14" y1="59.73" x2="346.03" y2="59.73"/><line class="u" x1="135.95" y1="228.76" x2="135.95" y2="309.37"/><line class="u" x1="111.12" y1="244.07" x2="111.12" y2="314.83"/><line class="u" x1="139.88" y1="198.79" x2="139.88" y2="137.16"/><line class="u" x1="133.78" y1="181.2" x2="86.76" y2="181.2"/><line class="u" x1="162.18" y1="178.2" x2="162.18" y2="116.41"/><line class="u" x1="182.94" y1="216.16" x2="182.94" y2="278.73"/></g><g id="k"><g><text class="n" transform="translate(10.16 343.12)"><tspan x="0" y="0">SL07</tspan></text><text class="n" transform="translate(18.4 299.36)"><tspan x="0" y="0">SL02</tspan></text><text class="n" transform="translate(38.86 313.8)"><tspan x="0" y="0">SL06</tspan></text><text class="n" transform="translate(72.56 234.71)"><tspan x="0" y="0">SL01</tspan></text><text class="n" transform="translate(78.79 266.54)"><tspan x="0" y="0">SL05</tspan></text><text class="n" transform="translate(94.89 288.65)"><tspan x="0" y="0">SL08</tspan></text><text class="n" transform="translate(114.5 253.33)"><tspan x="0" y="0">SL03</tspan></text><text class="n" transform="translate(116.51 193.13)"><tspan x="0" y="0">SM03</tspan></text><text class="n" transform="translate(132.52 214.3)"><tspan x="0" y="0">SM08</tspan></text><text class="n" transform="translate(137.5 246.04)"><tspan x="0" y="0">SM13</tspan></text><text class="n" transform="translate(144.14 231.34)"><tspan x="0" y="0">SM11</tspan></text><text class="n" transform="translate(144.9 168.18)"><tspan x="0" y="0">SM01</tspan></text><text class="n" transform="translate(145.16 264.12)"><tspan x="0" y="0">SM14</tspan></text><text class="n" transform="translate(157.32 191.57)"><tspan x="0" y="0">SM06</tspan></text><text class="n" transform="translate(161.82 204.36)"><tspan x="0" y="0">SM07</tspan></text><text class="n" transform="translate(168.71 238.16)"><tspan x="0" y="0">SM10</tspan></text><text class="n" transform="translate(183.44 131.06)"><tspan x="0" y="0">SA03</tspan></text><text class="n" transform="translate(184.39 151.94)"><tspan x="0" y="0">SA06</tspan></text><text class="n" transform="translate(201.85 220.86)"><tspan x="0" y="0">SA10</tspan></text><text class="n" transform="translate(229.03 138.59)"><tspan x="0" y="0">SA04</tspan></text><text class="n" transform="translate(229.79 114.57)"><tspan x="0" y="0">SA02</tspan></text><text class="n" transform="translate(234.86 91.83)"><tspan x="0" y="0">SA01</tspan></text><text class="n" transform="translate(236.53 205.23)"><tspan x="0" y="0">SA09</tspan></text><text class="n" transform="translate(239.58 166.6)"><tspan x="0" y="0">SA07</tspan></text><text class="n" transform="translate(257.35 87.53)"><tspan x="0" y="0">SB08</tspan></text><text class="n" transform="translate(259.97 112.04)"><tspan x="0" y="0">SB10</tspan></text><text class="n" transform="translate(262.27 138.95)"><tspan x="0" y="0">SB12</tspan></text><text class="n" transform="translate(263.29 57.84)"><tspan x="0" y="0">SB04</tspan></text><text class="n" transform="translate(265.13 166.85)"><tspan x="0" y="0">SB13</tspan></text><text class="n" transform="translate(270.18 201.52)"><tspan x="0" y="0">SB14</tspan></text><text class="n" transform="translate(278.42 19.86)"><tspan x="0" y="0">SB02</tspan></text><text class="n" transform="translate(287.92 62.33)"><tspan x="0" y="0">SB06</tspan></text><text class="n" transform="translate(291.53 83.72)"><tspan x="0" y="0">SB07</tspan></text><text class="n" transform="translate(296.39 107.05)"><tspan x="0" y="0">SB09</tspan></text><text class="n" transform="translate(299.83 133.39)"><tspan x="0" y="0">SB11</tspan></text><text class="n" transform="translate(300.43 18.63)"><tspan x="0" y="0">SB01</tspan></text><text class="n" transform="translate(68.23 183.8)"><tspan x="0" y="0">SM02</tspan></text><text class="n" transform="translate(104.04 327.43)"><tspan x="0" y="0">SL04</tspan></text><text class="n" transform="translate(127.42 321.97)"><tspan x="0" y="0">SM12</tspan></text><text class="n" transform="translate(131.4 129.76)"><tspan x="0" y="0">SM05</tspan></text><text class="n" transform="translate(153.58 109.01)"><tspan x="0" y="0">SM04</tspan></text><text class="n" transform="translate(174.4 291.32)"><tspan x="0" y="0">SM09</tspan></text><text class="n" transform="translate(203.67 68.97)"><tspan x="0" y="0">SA05</tspan></text><text class="n" transform="translate(343.69 43.66)"><tspan x="0" y="0">SB03</tspan></text><text class="n" transform="translate(348.69 62.33)"><tspan x="0" y="0">SB05</tspan></text><text class="n" transform="translate(200.52 178.32)"><tspan x="0" y="0">SA08</tspan></text></g><g><text class="m" transform="translate(10.16 343.12)"><tspan x="0" y="0">SL07</tspan></text><text class="m" transform="translate(18.4 299.36)"><tspan x="0" y="0">SL02</tspan></text><text class="m" transform="translate(38.86 313.8)"><tspan x="0" y="0">SL06</tspan></text><text class="m" transform="translate(72.56 234.71)"><tspan x="0" y="0">SL01</tspan></text><text class="m" transform="translate(78.79 266.54)"><tspan x="0" y="0">SL05</tspan></text><text class="m" transform="translate(94.89 288.65)"><tspan x="0" y="0">SL08</tspan></text><text class="m" transform="translate(114.5 253.33)"><tspan x="0" y="0">SL03</tspan></text><text class="m" transform="translate(116.51 193.13)"><tspan x="0" y="0">SM03</tspan></text><text class="m" transform="translate(132.52 214.3)"><tspan x="0" y="0">SM08</tspan></text><text class="m" transform="translate(137.5 246.04)"><tspan x="0" y="0">SM13</tspan></text><text class="m" transform="translate(144.14 231.34)"><tspan x="0" y="0">SM11</tspan></text><text class="m" transform="translate(144.9 168.18)"><tspan x="0" y="0">SM01</tspan></text><text class="m" transform="translate(145.16 264.12)"><tspan x="0" y="0">SM14</tspan></text><text class="m" transform="translate(157.32 191.57)"><tspan x="0" y="0">SM06</tspan></text><text class="m" transform="translate(161.82 204.36)"><tspan x="0" y="0">SM07</tspan></text><text class="m" transform="translate(168.71 238.16)"><tspan x="0" y="0">SM10</tspan></text><text class="m" transform="translate(183.44 131.06)"><tspan x="0" y="0">SA03</tspan></text><text class="m" transform="translate(184.39 151.94)"><tspan x="0" y="0">SA06</tspan></text><text class="m" transform="translate(201.85 220.86)"><tspan x="0" y="0">SA10</tspan></text><text class="m" transform="translate(229.03 138.59)"><tspan x="0" y="0">SA04</tspan></text><text class="m" transform="translate(229.79 114.57)"><tspan x="0" y="0">SA02</tspan></text><text class="m" transform="translate(234.86 91.83)"><tspan x="0" y="0">SA01</tspan></text><text class="m" transform="translate(236.53 205.23)"><tspan x="0" y="0">SA09</tspan></text><text class="m" transform="translate(239.58 166.6)"><tspan x="0" y="0">SA07</tspan></text><text class="m" transform="translate(257.35 87.53)"><tspan x="0" y="0">SB08</tspan></text><text class="m" transform="translate(259.97 112.04)"><tspan x="0" y="0">SB10</tspan></text><text class="m" transform="translate(262.27 138.95)"><tspan x="0" y="0">SB12</tspan></text><text class="m" transform="translate(263.29 57.84)"><tspan x="0" y="0">SB04</tspan></text><text class="m" transform="translate(265.13 166.85)"><tspan x="0" y="0">SB13</tspan></text><text class="m" transform="translate(270.18 201.52)"><tspan x="0" y="0">SB14</tspan></text><text class="m" transform="translate(278.42 19.86)"><tspan x="0" y="0">SB02</tspan></text><text class="m" transform="translate(287.92 62.33)"><tspan x="0" y="0">SB06</tspan></text><text class="m" transform="translate(291.53 83.72)"><tspan x="0" y="0">SB07</tspan></text><text class="m" transform="translate(296.39 107.05)"><tspan x="0" y="0">SB09</tspan></text><text class="m" transform="translate(299.83 133.39)"><tspan x="0" y="0">SB11</tspan></text><text class="m" transform="translate(300.43 18.63)"><tspan x="0" y="0">SB01</tspan></text><text class="m" transform="translate(68.23 183.8)"><tspan x="0" y="0">SM02</tspan></text><text class="m" transform="translate(104.04 327.43)"><tspan x="0" y="0">SL04</tspan></text><text class="m" transform="translate(127.42 321.97)"><tspan x="0" y="0">SM12</tspan></text><text class="m" transform="translate(131.4 129.76)"><tspan x="0" y="0">SM05</tspan></text><text class="m" transform="translate(153.58 109.01)"><tspan x="0" y="0">SM04</tspan></text><text class="m" transform="translate(174.4 291.32)"><tspan x="0" y="0">SM09</tspan></text><text class="m" transform="translate(203.67 68.97)"><tspan x="0" y="0">SA05</tspan></text><text class="m" transform="translate(343.69 43.66)"><tspan x="0" y="0">SB03</tspan></text><text class="m" transform="translate(348.69 62.33)"><tspan x="0" y="0">SB05</tspan></text><text class="m" transform="translate(200.52 178.32)"><tspan x="0" y="0">SA08</tspan></text></g><g><text class="l" transform="translate(10.16 343.12)"><tspan x="0" y="0">SL07</tspan></text><text class="l" transform="translate(18.4 299.36)"><tspan x="0" y="0">SL02</tspan></text><text class="l" transform="translate(38.86 313.8)"><tspan x="0" y="0">SL06</tspan></text><text class="l" transform="translate(72.56 234.71)"><tspan x="0" y="0">SL01</tspan></text><text class="l" transform="translate(78.79 266.54)"><tspan x="0" y="0">SL05</tspan></text><text class="l" transform="translate(94.89 288.65)"><tspan x="0" y="0">SL08</tspan></text><text class="l" transform="translate(114.5 253.33)"><tspan x="0" y="0">SL03</tspan></text><text class="l" transform="translate(116.51 193.13)"><tspan x="0" y="0">SM03</tspan></text><text class="l" transform="translate(132.52 214.3)"><tspan x="0" y="0">SM08</tspan></text><text class="l" transform="translate(137.5 246.04)"><tspan x="0" y="0">SM13</tspan></text><text class="l" transform="translate(144.14 231.34)"><tspan x="0" y="0">SM11</tspan></text><text class="l" transform="translate(144.9 168.18)"><tspan x="0" y="0">SM01</tspan></text><text class="l" transform="translate(145.16 264.12)"><tspan x="0" y="0">SM14</tspan></text><text class="l" transform="translate(157.32 191.57)"><tspan x="0" y="0">SM06</tspan></text><text class="l" transform="translate(161.82 204.36)"><tspan x="0" y="0">SM07</tspan></text><text class="l" transform="translate(168.71 238.16)"><tspan x="0" y="0">SM10</tspan></text><text class="l" transform="translate(183.44 131.06)"><tspan x="0" y="0">SA03</tspan></text><text class="l" transform="translate(184.39 151.94)"><tspan x="0" y="0">SA06</tspan></text><text class="l" transform="translate(201.85 220.86)"><tspan x="0" y="0">SA10</tspan></text><text class="l" transform="translate(229.03 138.59)"><tspan x="0" y="0">SA04</tspan></text><text class="l" transform="translate(229.79 114.57)"><tspan x="0" y="0">SA02</tspan></text><text class="l" transform="translate(234.86 91.83)"><tspan x="0" y="0">SA01</tspan></text><text class="l" transform="translate(236.53 205.23)"><tspan x="0" y="0">SA09</tspan></text><text class="l" transform="translate(239.58 166.6)"><tspan x="0" y="0">SA07</tspan></text><text class="l" transform="translate(257.35 87.53)"><tspan x="0" y="0">SB08</tspan></text><text class="l" transform="translate(259.97 112.04)"><tspan x="0" y="0">SB10</tspan></text><text class="l" transform="translate(262.27 138.95)"><tspan x="0" y="0">SB12</tspan></text><text class="l" transform="translate(263.29 57.84)"><tspan x="0" y="0">SB04</tspan></text><text class="l" transform="translate(265.13 166.85)"><tspan x="0" y="0">SB13</tspan></text><text class="l" transform="translate(270.18 201.52)"><tspan x="0" y="0">SB14</tspan></text><text class="l" transform="translate(278.42 19.86)"><tspan x="0" y="0">SB02</tspan></text><text class="l" transform="translate(287.92 62.33)"><tspan x="0" y="0">SB06</tspan></text><text class="l" transform="translate(291.53 83.72)"><tspan x="0" y="0">SB07</tspan></text><text class="l" transform="translate(296.39 107.05)"><tspan x="0" y="0">SB09</tspan></text><text class="l" transform="translate(299.83 133.39)"><tspan x="0" y="0">SB11</tspan></text><text class="l" transform="translate(300.43 18.63)"><tspan x="0" y="0">SB01</tspan></text><text class="l" transform="translate(68.23 183.8)"><tspan x="0" y="0">SM02</tspan></text><text class="l" transform="translate(104.04 327.43)"><tspan x="0" y="0">SL04</tspan></text><text class="l" transform="translate(127.42 321.97)"><tspan x="0" y="0">SM12</tspan></text><text class="l" transform="translate(131.4 129.76)"><tspan x="0" y="0">SM05</tspan></text><text class="l" transform="translate(153.58 109.01)"><tspan x="0" y="0">SM04</tspan></text><text class="l" transform="translate(174.4 291.32)"><tspan x="0" y="0">SM09</tspan></text><text class="l" transform="translate(203.67 68.97)"><tspan x="0" y="0">SA05</tspan></text><text class="l" transform="translate(343.69 43.66)"><tspan x="0" y="0">SB03</tspan></text><text class="l" transform="translate(348.69 62.33)"><tspan x="0" y="0">SB05</tspan></text><text class="l" transform="translate(200.52 178.32)"><tspan x="0" y="0">SA08</tspan></text></g></g></g></g></svg>