<svg xmlns="http://www.w3.org/2000/svg" id="a" viewBox="0 0 286.03 286.03"><defs><style>.b{fill:#fff}.d{fill:#ffc10a}</style></defs><path fill="#4285f4" d="M142.98 39.12H246.9v34.22c-4.44-2.56-8.88-5.13-13.32-7.68l-1.5-.86-1.5.87-.1.06c-5.9 3.41-11.81 6.82-17.71 10.22l-1.5.87v17.11c-4.44-2.56-8.88-5.13-13.32-7.68l-1.5-.86-1.5.86-17.82 10.28-1.5.87v17.11l-13.32-7.68-1.5-.87-1.5.87-.1.06c-5.9 3.41-11.81 6.82-17.71 10.22l-1.5.87v17.11l-13.32-7.68-1.5-.87-1.5.87-17.67 10.2-.08.04-1.56.85v17.16l-13.32-7.68-1.5-.87-1.5.87-8.91 5.14-4.41 2.55v-48.25c0-37.64 30.63-68.26 68.27-68.26m0-3c-39.36 0-71.27 31.9-71.27 71.26v53.45l17.82-10.29 17.82 10.28v-20.57l.11-.06 17.7-10.22L143 140.29v-20.57c5.94-3.42 11.88-6.85 17.82-10.28l17.82 10.28V99.15l17.82-10.28c5.94 3.42 11.88 6.85 17.82 10.28V78.58c5.94-3.42 11.88-6.85 17.82-10.28 5.94 3.42 11.88 6.85 17.82 10.28V36.12H143Z"/><path d="M50.92 39.42V235.1h195.67c-1.39 6.74-7.37 11.82-14.51 11.82H39.13V53.91c0-7.13 5.07-13.09 11.79-14.48m3-3.31c-9.83 0-17.79 7.97-17.79 17.79v196.01h195.95c9.84 0 17.82-7.98 17.82-17.82H53.92V36.12Z" class="b"/><path d="M86.55 155.74v55.54H74.73v-48.72c3.94-2.28 7.88-4.55 11.82-6.82m3-5.19c-5.94 3.42-11.88 6.85-17.82 10.28v53.45h17.82v-63.73Zm68.27-35.95v71.33h-31.84l-7.42-4.28h27.43v-60.23c3.94-2.28 7.88-4.55 11.82-6.82m3-5.2Zm0 .01c-5.94 3.42-11.88 6.85-17.82 10.28v58.96h-35.63l17.81 10.28h35.64v-79.52Z" class="d"/><path d="M193.45 94.02v81.62h-11.81v-74.79l11.81-6.82m3-5.2-17.81 10.29v79.53h17.81V88.83Zm-74.26 46.34v40.48h-11.82v-33.66c3.94-2.28 7.88-4.55 11.82-6.82m3-5.19c-5.94 3.42-11.88 6.85-17.82 10.28v38.39h17.82v-48.67Zm50.45 53.86v27.44h-11.82v-20.62c2.47-1.43 4.94-2.85 7.41-4.28 1.47-.85 2.94-1.69 4.41-2.54m3-5.19c-5.94 3.43-11.88 6.85-17.82 10.28v25.35h17.82v-35.63Zm-74.27 5.19v27.44H92.55v-20.62c2.47-1.43 4.94-2.85 7.41-4.28 1.47-.85 2.94-1.69 4.41-2.54m3-5.19c-5.94 3.43-11.88 6.85-17.82 10.28v25.35h17.82v-35.63Z" class="b"/><path d="M229.09 73.45v112.48h-31.83l-7.42-4.28h27.43V80.27c3.94-2.28 7.88-4.55 11.82-6.82m3-5.19c-5.94 3.42-11.88 6.85-17.82 10.28v100.11h-35.63l17.82 10.28h35.63V68.26Z" class="d"/></svg>
