<svg xmlns="http://www.w3.org/2000/svg" viewBox="0 0 506.31 285.69"><defs><clipPath id="d"><path fill="none" d="M0 0h506.31v285.69H0z"/></clipPath><style>.e{fill:#0d1115}.g{fill:#ffc10a}</style></defs><g id="b"><g id="c" clip-path="url(#d)"><path fill="#231f20" d="M137.44 143.16c0-4.67-1.5-8.53-4.5-11.57-3-3.04-6.82-4.57-11.46-4.57h-8.81v32.27h8.81c4.64 0 8.46-1.52 11.46-4.56s4.5-6.9 4.5-11.57m-16.41 13.92h-5.95v-27.85h5.95c4.21 0 7.58 1.28 10.12 3.83s3.8 5.92 3.8 10.1-1.27 7.55-3.8 10.1c-2.54 2.55-5.91 3.83-10.12 3.83m47.39 2.21-12.86-32.27h-2.67l-12.86 32.27h2.58l3.69-9.41h15.86l3.69 9.41m-18.63-11.62 7.01-17.98 7.01 17.98h-14.02Zm22.49-18.45h9.73v30.07h2.4v-30.07h9.73v-2.21h-21.86m45.28 22.87 3.69 9.41h2.58l-12.86-32.27h-2.68l-12.86 32.27h2.58l3.69-9.41m7.93-20.19 7.01 17.98h-14.02l7.01-17.98ZM76.17 108.77c-1-.85-2.03-1.55-3.09-2.09-1.06-.54-2.37-1.1-3.93-1.68-.07-.03-.19-.08-.36-.15-2.08-.78-3.47-1.33-4.18-1.66-.71-.32-1.42-.85-2.12-1.58s-1.04-1.57-1.04-2.53c0-1.19.53-2.2 1.58-3.04 1.05-.83 2.34-1.25 3.88-1.25.82 0 1.64.14 2.47.43s1.51.61 2.04.97 1.05.77 1.55 1.22c.51.46.84.78 1 .97.15.19.26.33.33.43l4.23-4.18-.51-.56c-.31-.41-.8-.88-1.48-1.43-.68-.54-1.45-1.1-2.32-1.66-.87-.56-1.96-1.04-3.27-1.43s-2.66-.59-4.06-.59c-3.44 0-6.24 1.02-8.42 3.06s-3.26 4.39-3.26 7.04c0 1.57.31 2.98.94 4.26.63 1.27 1.54 2.36 2.73 3.24s2.36 1.61 3.5 2.17 2.47 1.11 4 1.66c2.38.85 4.07 1.64 5.05 2.37.99.73 1.48 1.8 1.48 3.19s-.61 2.39-1.84 3.09c-1.22.7-2.69 1.05-4.39 1.05-1.02 0-2.01-.2-2.96-.59-.95-.39-1.73-.82-2.35-1.28-.61-.46-1.19-1-1.74-1.63-.54-.63-.9-1.06-1.07-1.3-.17-.24-.29-.42-.36-.56l-4.59 3.88.51.77c.31.48.82 1.07 1.55 1.79.73.71 1.57 1.44 2.53 2.17.95.73 2.19 1.34 3.7 1.84 1.51.49 3.1.74 4.77.74 3.54 0 6.5-.88 8.88-2.63s3.57-4.19 3.57-7.32c0-1.56-.25-2.94-.74-4.13s-1.24-2.21-2.24-3.06m6.23-13.38h9.85v29.9h6.12V95.4h9.85v-5.82H82.37m36.43 22.25h2.81l8.47 13.47h7.15l-8.93-13.88c2.52-.64 4.47-1.91 5.87-3.8 1.39-1.89 2.09-4.19 2.09-6.91 0-3.27-1.09-5.94-3.26-8.01-2.18-2.07-5.03-3.11-8.57-3.11h-11.74v35.72h6.12m0-29.9h4.85c2.01 0 3.57.45 4.7 1.35 1.12.9 1.68 2.22 1.68 3.95s-.56 3.05-1.68 3.95c-1.12.9-2.69 1.35-4.7 1.35h-4.85V95.4Zm45.56 24.07h-15.82v-9.59h14.28v-5.82h-14.28V95.4h15.51v-5.82h-21.63v35.72h21.94m40.56 0h6.12V95.4h9.85v-5.82h-25.82v5.82h9.85m-28.52 14.49h14.28v-5.82h-14.28V95.4h15.51v-5.82h-21.64v35.72h21.94v-5.82h-15.81m-71.5 60.72c-1.01-.85-2.04-1.55-3.09-2.09-1.06-.54-2.36-1.1-3.93-1.68-.07-.03-.19-.08-.36-.15-2.07-.78-3.47-1.33-4.18-1.66-.71-.32-1.42-.85-2.12-1.58-.7-.73-1.05-1.57-1.05-2.53 0-1.19.53-2.2 1.58-3.04 1.05-.83 2.35-1.25 3.88-1.25.82 0 1.64.15 2.48.43.83.29 1.51.61 2.04.97s1.05.76 1.56 1.22c.51.46.84.78 1 .97.15.19.26.33.33.43l4.24-4.18-.51-.56c-.31-.41-.8-.88-1.48-1.43-.68-.54-1.45-1.1-2.32-1.66s-1.96-1.04-3.27-1.43-2.66-.59-4.06-.59c-3.43 0-6.24 1.02-8.42 3.06s-3.27 4.39-3.27 7.04c0 1.57.32 2.98.94 4.26.63 1.27 1.54 2.36 2.73 3.24s2.35 1.61 3.5 2.17c1.14.56 2.48 1.11 4.01 1.66 2.38.85 4.06 1.64 5.05 2.37.99.73 1.48 1.79 1.48 3.19s-.61 2.39-1.84 3.09c-1.22.7-2.69 1.05-4.39 1.05-1.02 0-2.01-.2-2.96-.59s-1.74-.82-2.35-1.28c-.61-.46-1.19-1-1.73-1.63-.55-.63-.9-1.06-1.07-1.3s-.29-.43-.36-.56l-4.59 3.88.51.77c.31.48.83 1.07 1.56 1.79.73.71 1.57 1.44 2.52 2.17s2.19 1.34 3.7 1.84c1.51.49 3.1.74 4.77.74 3.54 0 6.5-.88 8.88-2.63s3.57-4.19 3.57-7.32c0-1.56-.25-2.94-.74-4.13s-1.24-2.21-2.24-3.06m7.77-19.19h6.12v35.72h-6.12zm30.21 21.32H151v7.55l-.66.41c-.44.31-1.27.6-2.48.89-1.21.29-2.56.43-4.06.43-3.54 0-6.51-1.25-8.93-3.75s-3.62-5.5-3.62-9.01 1.17-6.51 3.5-9.01 5.26-3.75 8.8-3.75c1.12 0 2.21.14 3.26.41 1.05.27 1.9.57 2.55.89.65.32 1.24.7 1.79 1.12.54.43.9.72 1.07.89.17.17.29.31.36.41l4.18-4.08-.51-.56c-.34-.38-.88-.83-1.63-1.35-.75-.53-1.62-1.05-2.6-1.56-.99-.51-2.24-.95-3.75-1.33s-3.09-.56-4.72-.56c-5.24 0-9.64 1.76-13.19 5.28s-5.33 7.92-5.33 13.19 1.81 9.63 5.43 13.16c3.62 3.54 8.07 5.31 13.34 5.31 1.63 0 3.21-.16 4.72-.48s2.74-.68 3.67-1.07c.93-.39 1.82-.85 2.65-1.38.83-.53 1.37-.88 1.61-1.07s.42-.35.56-.48v-16.23h-14.13m41.95-1.05h-15.26v-14.54h-6.12v35.71h6.12v-15.35h15.26v15.35h6.12v-35.71h-6.12m10.61 5.81h9.85v29.9h6.12v-29.9h9.85v-5.81h-25.82M71.47 185.61l-17.85-24.59h-5.51v35.71h6.12v-24.54l17.85 24.54h5.52v-35.71h-6.13m-34.64 0h6.12v35.72h-6.12z"/><path fill="#4285f4" fill-rule="evenodd" d="M363.78 36.26h106.9v42.42c-5.94-3.43-11.88-6.86-17.82-10.28-5.94 3.43-11.88 6.86-17.82 10.28v20.57c-5.94-3.43-11.88-6.86-17.82-10.28L399.4 99.25v20.57l-17.82-10.28c-5.94 3.43-11.88 6.86-17.82 10.28v20.57l-17.82-10.28-17.7 10.22-.11.06v20.57l-17.82-10.28-17.82 10.29v-53.45c0-39.36 31.91-71.26 71.27-71.26"/><path d="M470.68 232.24c0 9.84-7.98 17.82-17.82 17.82H256.91V54.05c0-9.82 7.96-17.79 17.79-17.79v195.98" class="e"/><path d="M310.33 150.69v63.73h-17.82v-53.45c5.94-3.43 11.88-6.86 17.82-10.28m71.27-41.15v79.53h-35.64l-17.81-10.28h35.63v-58.96c5.94-3.43 11.88-6.86 17.82-10.28" class="g"/><path d="M417.23 88.97v89.82h-17.81V99.26m-53.45 30.86v48.67h-17.82V140.4c5.94-3.43 11.88-6.86 17.82-10.28m53.45 48.67v35.63H381.6v-25.35c5.94-3.43 11.88-6.85 17.82-10.28m-71.27 0v35.63h-17.82v-25.35c5.94-3.43 11.88-6.85 17.82-10.28" class="e"/><path d="M452.87 68.4v120.67h-35.63l-17.82-10.28h35.63V78.68c5.94-3.43 11.88-6.86 17.82-10.28" class="g"/></g></g></svg>
